HIERARCHY
ROOT Hips
{
  OFFSET 2.26061 22.2878 23.7974
  CHANNELS 6 Xposition Yposition Zposition Zrotation Xrotation Yrotation
  JOINT LeftUpLeg
  {
    OFFSET 8.64259 1.95398 -2.38835
    CHANNELS 3 Zrotation Xrotation Yrotation
    JOINT LeftLeg
    {
      OFFSET 43.7702 0 0
      CHANNELS 3 Zrotation Xrotation Yrotation
      JOINT LeftFoot
      {
        OFFSET 40.6238 0 0
        CHANNELS 3 Zrotation Xrotation Yrotation
        JOINT LeftToeBase
        {
          OFFSET 12.7242 0 0
          CHANNELS 3 Zrotation Xrotation Yrotation
          End Site
          {
            OFFSET 0 0 0
          }
        }
      }
    }
  }
  JOINT RightUpLeg
  {
    OFFSET -8.2249 1.95398 -2.59336
    CHANNELS 3 Zrotation Xrotation Yrotation
    JOINT RightLeg
    {
      OFFSET 43.5653 0 0
      CHANNELS 3 Zrotation Xrotation Yrotation
      JOINT RightFoot
      {
        OFFSET 40.6238 0 0
        CHANNELS 3 Zrotation Xrotation Yrotation
        JOINT RightToeBase
        {
          OFFSET 12.7242 0 0
          CHANNELS 3 Zrotation Xrotation Yrotation
          End Site
          {
            OFFSET 0 0 0
          }
        }
      }
    }
  }
  JOINT Spine
  {
    OFFSET 0.165834 0.87714 6.61349
    CHANNELS 3 Zrotation Xrotation Yrotation
    JOINT Spine1
    {
      OFFSET 7.38963 1.71661e-005 0
      CHANNELS 3 Zrotation Xrotation Yrotation
      JOINT Spine2
      {
        OFFSET 11.9445 1.14441e-005 0
        CHANNELS 3 Zrotation Xrotation Yrotation
        JOINT Spine3
        {
          OFFSET 14.7254 4.19617e-005 0
          CHANNELS 3 Zrotation Xrotation Yrotation
          JOINT Spine4
          {
            OFFSET 10.9679 0 0
            CHANNELS 3 Zrotation Xrotation Yrotation
            JOINT RightShoulder
            {
              OFFSET 2.46616 -1.6653 3.69651
              CHANNELS 3 Zrotation Xrotation Yrotation
              JOINT RightArm
              {
                OFFSET 13.0012 0 0
                CHANNELS 3 Zrotation Xrotation Yrotation
                JOINT RightForeArm
                {
                  OFFSET 28.7848 1.52588e-005 0
                  CHANNELS 3 Zrotation Xrotation Yrotation
                  JOINT RightHand
                  {
                    OFFSET 26.5688 1.52588e-005 0
                    CHANNELS 3 Zrotation Xrotation Yrotation
                    End Site
                    {
                      OFFSET 0 0 0
                    }
                  }
                }
              }
            }
            JOINT LeftShoulder
            {
              OFFSET 2.38034 -1.29275 -3.7523
              CHANNELS 3 Zrotation Xrotation Yrotation
              JOINT LeftArm
              {
                OFFSET 16.3182 6.10351e-005 0
                CHANNELS 3 Zrotation Xrotation Yrotation
                JOINT LeftForeArm
                {
                  OFFSET 27.0901 0 0
                  CHANNELS 3 Zrotation Xrotation Yrotation
                  JOINT LeftHand
                  {
                    OFFSET 24.5451 1.52588e-005 0
                    CHANNELS 3 Zrotation Xrotation Yrotation
                    End Site
                    {
                      OFFSET 0 0 0
                    }
                  }
                }
              }
            }
            JOINT Neck
            {
              OFFSET 5.0226 -0.0266342 0
              CHANNELS 3 Zrotation Xrotation Yrotation
              JOINT Head
              {
                OFFSET 6.69363 2.86102e-005 0
                CHANNELS 3 Zrotation Xrotation Yrotation
                End Site
                {
                  OFFSET 0 0 0
                }
              }
            }
          }
        }
      }
    }
  }
}
MOTION
Frames:	9
Frame Time:	0.0416667
26.6693 95.1688 -308.52 20.4521 -41.4626 29.6115 -179.762 41.3154 88.4824 -7.18033 19.0057 1.93312 71.1512 8.23972 -4.61607 27.2803 -1.80499 4.86575 170.288 55.4009 94.7396 -143.781 84.5097 111.862 30.3083 18.6872 23.59 3.29219 -37.5982 92.9719 -4.69891 0.11781 -93.0758 26.6286 -10.7906 -3.099 15.0004 -10.9163 -2.61589 -7.79444 -9.35805 -6.22076 12.2182 -9.35805 -6.22076 82.2142 -38.7813 -117.218 58.487 37.1202 -20.9522 -58.781 -5.789 -0.0154193 -27.5276 18.4274 -66.4308 -55.1345 -55.1554 129.173 -33.2614 18.9553 16.3212 6.21332 20.3555 -36.3712 25.5791 2.91419 7.66096 -17.5493 17.2133 17.4554 -1.44207 18.027 -0.334086 
26.6994 95.6379 -309.508 14.6068 -51.0955 26.6836 -177.299 38.0028 92.5467 -13.9262 15.6329 1.74615 74.5404 9.19385 -3.8832 24.8307 -3.63814 3.11288 167.621 45.6285 99.1231 -60.6737 74.5971 34.6809 36.1254 16.2776 20.3351 7.7022 -28.985 85.4349 -3.85605 1.11725 -93.1209 24.572 -9.22754 -3.92744 12.9294 -9.39126 -3.51473 -9.75321 -7.62107 -6.52746 10.2594 -7.62106 -6.52747 82.6976 -39.2334 -116.196 56.2034 35.1565 -20.1808 -57.0389 -12.4414 -0.0157096 -27.4978 18.0873 -65.567 -59.0336 -56.7907 123.317 -31.213 19.1956 16.5285 9.04484 22.0201 -38.5018 11.6276 1.25356 6.62544 -12.4935 15.8441 16.0899 -6.99406 15.8441 0.704715 
26.427 95.8001 -311.014 24.7763 -53.8665 32.7833 -177.578 32.7196 89.1598 -11.9034 16.967 1.67048 73.1158 9.17218 -4.31509 24.7838 -3.45199 1.73626 169.202 42.3559 94.2907 -42.8479 58.1429 13.9307 40.9846 16.4635 18.8047 23.6839 -11.0587 66.6679 -4.04719 1.5339 -92.4745 23.7927 -9.21487 -2.61822 12.1528 -9.32106 -2.20689 -10.5719 -8.00063 -5.28045 9.44077 -8.00063 -5.28045 82.6003 -40.2362 -115.91 51.3891 32.2203 -17.4801 -53.3028 -20.2558 -0.0163519 -26.0381 16.965 -65.1653 -64.4287 -59.2673 115.394 -28.8061 16.8406 16.5767 9.2784 20.1712 -38.504 11.2529 1.38692 7.98183 -15.364 13.7894 17.9504 -1.11551 14.1817 -2.46443 
26.4287 96.3039 -312.65 21.0455 -63.7216 30.1789 -175.278 26.716 91.7114 -14.1565 11.916 1.41374 75.6831 9.90939 -5.56117 23.3443 -4.56636 1.35556 170.246 31.0857 95.942 -29.2642 31.8357 8.24349 49.5213 10.5414 10.4179 37.9336 1.21244 37.9342 -3.18644 2.56654 -92.3405 21.6704 -7.48377 -3.00478 10.0183 -7.60868 -2.67098 -12.6173 -6.23485 -5.11988 7.39532 -6.23485 -5.11989 82.5117 -41.2286 -115.623 46.0606 26.3057 -13.7137 -46.0246 -26.6095 -0.017158 -22.0836 13.9622 -63.5893 -71.5227 -61.1535 105.585 -27.3761 14.9925 16.382 8.14835 17.1722 -37.8416 11.1681 1.47592 8.7574 -13.8835 11.1611 18.5128 -0.752409 11.26 -3.86875 
26.5157 96.4781 -314.185 28.0109 -68.8255 35.9637 -175.003 21.3711 91.0928 -13.7384 8.70545 1.75541 77.5481 10.8248 -9.0768 20.9399 -6.68234 1.99995 171.084 24.054 94.4596 -24.5265 14.8733 5.85641 56.9393 5.78204 3.99353 40.7762 1.26316 16.1397 -2.92958 3.37622 -91.9839 20.0759 -6.79376 -2.57636 8.42075 -6.90052 -2.27371 -14.2018 -5.70532 -4.50312 5.81083 -5.70532 -4.50313 82.3755 -41.9644 -115.528 41.5462 19.1429 -9.70071 -34.7466 -30.7472 -0.0178498 -20.3669 11.7194 -58.9427 -79.275 -63.0567 95.2536 -25.6825 14.14 15.5272 7.26697 15.2753 -37.4553 12.1214 1.51347 8.19406 -8.82349 8.97668 18.9087 -3.49697 8.28007 -5.04518 
26.7086 96.5431 -315.166 32.5368 -72.04 40.052 -174.619 17.6435 90.9908 -12.5715 5.56307 1.83557 79.5083 12.0499 -12.126 19.4828 -7.59194 0.717491 171.98 20.0595 94.0362 -22.7728 6.66159 4.30283 61.2727 1.83885 1.20642 40.077 0.784431 5.96797 -2.58263 4.06613 -91.725 18.7023 -5.97565 -2.31837 7.04352 -6.07186 -2.05235 -15.5579 -5.00263 -4.00978 4.45474 -5.00264 -4.00979 82.8784 -44.4027 -113.711 37.7649 14.6766 -6.5279 -28.1099 -37.9004 -0.0184936 -15.8396 6.98761 -48.2208 -86.6656 -63.3666 85.6053 -24.7358 14.0173 13.7035 6.63218 14.33 -37.2756 13.7453 1.5415 7.08019 -5.55152 7.1091 17.2082 -2.75363 5.92088 -5.8885 
27.0708 96.3465 -315.73 40.0164 -73.806 47.1354 -174.979 14.7942 90.6222 -12.1578 3.20809 2.24856 81.9801 13.8053 -14.8545 16.9566 -9.6391 0.640561 172.768 18.3213 93.7112 -24.5017 4.59994 3.22089 63.7689 -0.111605 -0.0425121 38.9684 0.509045 0.346541 -2.29296 4.75896 -91.3904 17.3278 -5.23153 -1.87539 5.66636 -5.30898 -1.64278 -16.9228 -4.42593 -3.36299 3.08983 -4.42594 -3.363 84.8876 -47.1158 -109.554 35.4783 10.5826 -3.92472 -20.5281 -41.2653 -0.0144388 -8.91299 2.60347 -34.9673 -92.5474 -61.9348 77.6803 -23.8941 15.1553 11.1662 6.40498 14.1984 -37.6378 12.2216 1.1907 5.62585 -1.74647 4.96734 12.0336 -2.64141 3.71252 -3.78505 
27.4039 95.3097 -315.614 42.3702 -73.892 49.1849 -175.715 16.1764 90.1883 -16.8238 0.838612 2.47171 87.6057 16.1826 -17.2295 15.8163 -10.6474 0.88615 173.245 22.8371 93.7192 -34.2305 7.20257 3.16048 65.7039 -1.59223 -0.905954 42.3017 0.559772 -2.01603 -2.06687 5.22746 -91.1438 16.3987 -4.65891 -1.53088 4.73538 -4.72175 -1.32396 -17.8446 -3.98332 -2.86186 2.16804 -3.98332 -2.86186 86.0473 -49.523 -106.987 33.2378 7.37604 -0.858943 -12.1716 -38.2429 1.39279 -5.60516 0.657911 -23.209 -95.3678 -59.8675 73.4751 -23.3351 17.8505 8.68482 6.11717 14.3527 -39.2711 12.519 1.25222 5.87757 0.916892 3.27645 8.5369 -1.70295 2.17988 -1.90258 
27.6706 94.8039 -314.804 43.4715 -73.8139 49.5091 -176.107 16.045 89.52 -18.3434 0.0905079 2.30884 89.6019 17.4921 -17.7669 17.6343 -9.56944 2.46166 172.251 28.3449 94.2018 -43.1512 10.5625 3.36687 69.2523 -3.1703 -1.67087 40.3484 0.429838 -4.03066 -1.9626 5.6864 -90.9299 15.4878 -4.34472 -1.1985 3.82377 -4.39326 -1.00578 -18.7537 -3.78351 -2.45033 1.25891 -3.78351 -2.45033 86.0784 -50.2881 -106.709 33.0562 5.46994 2.79295 -19.5629 -32.8794 -18.7506 -2.76776 -0.149859 -14.0834 -98.704 -58.5021 68.6442 -21.3731 17.962 7.71535 7.14268 13.4042 -42.2581 12.7174 1.31209 6.19037 1.85809 2.62966 6.97951 0.657737 1.64224 -1.4114 
